<svg height="512" viewBox="0 0 512 512" width="512" xmlns="http://www.w3.org/2000/svg"><g id="Filled_outline" data-name="Filled outline"><path d="m296 176v40l-40 56-40-56v-40z" fill="#fec9a3"/><path d="m296 176v23.19a56 56 0 0 1 -80 0v-23.19z" fill="#feb784"/><path d="m200 104h8a0 0 0 0 1 0 0v48a0 0 0 0 1 0 0h-8a24 24 0 0 1 -24-24 24 24 0 0 1 24-24z" fill="#f7ad7c"/><path d="m328 104h8a0 0 0 0 1 0 0v48a0 0 0 0 1 0 0h-8a24 24 0 0 1 -24-24 24 24 0 0 1 24-24z" fill="#f7ad7c" transform="matrix(-1 0 0 -1 640 256)"/><path d="m312 88v56a56 56 0 0 1 -56 56 56.885 56.885 0 0 1 -7.43-.49 56 56 0 0 1 -48.57-55.51v-56z" fill="#fec9a3"/><path d="m312 88v56a56 56 0 0 1 -56 56 56.885 56.885 0 0 1 -7.43-.49 82.292 82.292 0 0 0 28.12-62.04v-36.66a83.247 83.247 0 0 0 -.99-12.81z" fill="#fec093"/><path d="m320 56v32h-128v-32a32 32 0 0 1 32-32h64a31.986 31.986 0 0 1 32 32z" fill="#f35244"/><path d="m320 88h-128a19.464 19.464 0 0 0 19.558 28.049l18.722-2.08c11.777-1.309 39.663-1.309 51.44 0l18.722 2.08a19.464 19.464 0 0 0 19.558-28.049z" fill="#92563a"/><path d="m320 56v32h-107.6a412.748 412.748 0 0 0 95.06-57.41 31.975 31.975 0 0 1 12.54 25.41z" fill="#e84d40"/><path d="m224 56h64v32h-64z" fill="#fc685b"/><path d="m440 312-64 16-16-56v216h-208v-216l-16 56-64-16 9.27-33.97a73.308 73.308 0 0 1 70.73-54.03h48l16-8 40 56 40-56 16 8h48a73.284 73.284 0 0 1 70.73 54.03z" fill="#f35244"/><path d="m440 312-64 16-16-56v216h-208v-92.58c91.51-26.48 176.11-77.83 234.29-166.55a73.3 73.3 0 0 1 44.44 49.16z" fill="#e84d40"/><path d="m216 216-16 8v56l56-8z" fill="#92563a"/><path d="m296 216 16 8v56l-56-8z" fill="#92563a"/><path d="m136 328-19.46 58.39-12.54 37.61v64h-7.86a56.13 56.13 0 0 1 -56.14-56.14 55.8 55.8 0 0 1 2.16-15.42l29.84-104.44z" fill="#feb784"/><path d="m472 431.86a56.134 56.134 0 0 1 -56.14 56.14h-7.86v-64l-12.54-37.61-19.46-58.39 64-16 29.84 104.44a55.8 55.8 0 0 1 2.16 15.42z" fill="#feb784"/><path d="m136 256h240v232h-240z" fill="#fa9f0c"/><path d="m376 488h-240v-43l195-101h45z" fill="#f5980c"/><path d="m136 256h240v88h-240z" fill="#ffb531"/><path d="m232 256h48v88h-48z" fill="#f98500"/><path d="m232 344h48v48h-48z" fill="#f57707"/><path d="m192 436.87v38.26a12.867 12.867 0 0 1 -12.87 12.87h-82.99a56.13 56.13 0 0 1 -56.14-56.14 57.358 57.358 0 0 1 .55-7.86h63.45l5.48-27.39a15.69 15.69 0 0 1 30.77 6.16l-4.25 21.23h43.13a12.867 12.867 0 0 1 12.87 12.87z" fill="#fec9a3"/><path d="m472 431.86a56.134 56.134 0 0 1 -56.14 56.14h-82.99a12.867 12.867 0 0 1 -12.87-12.87v-38.26a12.867 12.867 0 0 1 12.87-12.87h43.13l-4.25-21.23a15.669 15.669 0 0 1 15.39-18.77 15.688 15.688 0 0 1 15.38 12.61l5.48 27.39h63.45a57.358 57.358 0 0 1 .55 7.86z" fill="#fec9a3"/><path d="m477.532 414.242-29.826-104.392-9.257-33.922a81.479 81.479 0 0 0 -78.449-59.928h-46.111l-9.889-4.944v-24.791a63.885 63.885 0 0 0 14.111-26.849 31.992 31.992 0 0 0 11.59-58.058 27.06 27.06 0 0 0 -1.701-15.076v-30.282a40.045 40.045 0 0 0 -40-40h-64a40.045 40.045 0 0 0 -40 40v30.282a27.061 27.061 0 0 0 -1.7 15.084 32.447 32.447 0 0 0 -4.934 4.014 32 32 0 0 0 16.52 54.027 63.882 63.882 0 0 0 14.114 26.858v24.791l-9.889 4.944h-46.111a81.746 81.746 0 0 0 -49.354 16.691 80.644 80.644 0 0 0 -29.094 43.233l-9.258 33.926-29.828 104.4a64.133 64.133 0 0 0 61.674 81.75h82.994a20.889 20.889 0 0 0 20.866-20.866v-38.268a20.889 20.889 0 0 0 -20.866-20.866h-33.375l2.333-11.665a23.6 23.6 0 0 0 -4.092-18.608v-33.727h80v40a8 8 0 0 0 8 8h48a8 8 0 0 0 8-8v-40h80v33.745a23.632 23.632 0 0 0 -4.1 18.595l2.34 11.66h-33.37a20.893 20.893 0 0 0 -20.87 20.87v38.26a20.8 20.8 0 0 0 .6 4.87h-96.6v16h199.86a64.137 64.137 0 0 0 61.672-81.758zm-157.532-296.255a27.588 27.588 0 0 0 2.333-2.187 15.945 15.945 0 0 1 -2.333 26.039zm-128 23.848a15.977 15.977 0 0 1 -3.324-25.137c.316-.314.657-.6 1-.889a27.58 27.58 0 0 0 2.324 2.167zm128 90.165h40a65.445 65.445 0 0 1 63.013 48.137l7.118 26.084-46.131 11.533v-61.754a8 8 0 0 0 -8-8h-56zm-16-88a48 48 0 0 1 -96 0v-19.861c.423.019.845.038 1.271.038a28.79 28.79 0 0 0 3.171-.177l18.722-2.08c11.141-1.238 38.531-1.238 49.672 0l18.722 2.08a28.438 28.438 0 0 0 4.442.132zm-104-88a24.028 24.028 0 0 1 24-24h64a24.028 24.028 0 0 1 24 24v24h-16v-24a8 8 0 0 0 -8-8h-64a8 8 0 0 0 -8 8v24h-16zm80 8v16h-48v-16zm-79.994 39.262a11.351 11.351 0 0 1 -2.062-7.262h116.112a11.5 11.5 0 0 1 -12.731 12.1l-18.721-2.08c-12.432-1.381-40.776-1.381-53.208 0l-18.721 2.08a11.317 11.317 0 0 1 -10.669-4.838zm-20.872 328.738a4.872 4.872 0 0 1 4.866 4.866v38.268a4.872 4.872 0 0 1 -4.866 4.866h-82.994a48.135 48.135 0 0 1 -46.287-61.362l27.714-97 48.112 12.029-15.937 47.819a23.636 23.636 0 0 0 -8.109 13.558l-4.192 20.956h-17.441v16h24a8 8 0 0 0 7.845-6.431l5.477-27.387a7.711 7.711 0 0 1 7.54-6.182 7.688 7.688 0 0 1 7.54 9.2l-4.247 21.234a8 8 0 0 0 7.845 9.566zm-43.134-184a8 8 0 0 0 -8 8v61.754l-46.131-11.533 7.118-26.085a65.308 65.308 0 0 1 63.013-48.136h40v16zm88 88h-80v-72h80zm-16-88v-19.056l5.463-2.731 15.562 21.787zm64 136h-32v-32h32zm0-48h-32v-72h32zm-8.687-88h-14.626l-24.687-34.563v-14.047a63.771 63.771 0 0 0 64 0v14.047zm19.662 0 15.562-21.787 5.463 2.731v19.056zm5.025 88v-72h80v72zm161.9 129.9a47.825 47.825 0 0 1 -34.04 14.1h-82.99a4.876 4.876 0 0 1 -4.87-4.87v-38.26a4.876 4.876 0 0 1 4.87-4.87h43.13a8 8 0 0 0 7.845-9.57l-4.251-21.23a7.712 7.712 0 0 1 -.059-2.723 7.718 7.718 0 0 1 7.606-6.477 7.721 7.721 0 0 1 4.889 1.757 7.532 7.532 0 0 1 2.645 4.422l5.48 27.39a8 8 0 0 0 7.845 6.431h24v-16h-17.442l-4.192-20.95a23.639 23.639 0 0 0 -8.12-13.6l-15.925-47.783 48.112-12.029 27.713 97a48.143 48.143 0 0 1 -12.246 47.262z"/></g></svg>