<svg height="512" viewBox="0 0 512 512" width="512" xmlns="http://www.w3.org/2000/svg"><g id="Filled_outline" data-name="Filled outline"><path d="m416 373.48v122.52h-320v-122.52a48 48 0 0 1 36.36-46.57l51.64-14.91 24-24v-32h96v32l24 24 51.64 14.91a48 48 0 0 1 36.36 46.57z" fill="#fdc8a2"/><path d="m304 256v25.43a31.965 31.965 0 0 1 -26.83 14.57h-42.34a31.965 31.965 0 0 1 -26.83-14.57v-25.43z" fill="#fdbf92"/><path d="m379.642 326.91-51.642-14.91-24-24-32 48-16 72-16-72-32-48-24 24-51.642 14.91a48 48 0 0 0 -36.358 46.567v122.523h320v-122.523a48 48 0 0 0 -36.358-46.567z" fill="#dfdfdd"/><path d="m240 336-32 24v-72z" fill="#eaeae8"/><path d="m272 336 32 24v-72z" fill="#eaeae8"/><path d="m208 288v208h-112v-122.52a47.986 47.986 0 0 1 36.36-46.57l51.64-14.91z" fill="#2f486e"/><path d="m416 373.48v122.52h-112v-208l24 24 51.64 14.91a47.979 47.979 0 0 1 36.36 46.57z" fill="#2f486e"/><path d="m184 312-24 32 32 24-16 24 32 80v-184z" fill="#415e89"/><path d="m328 312 24 32-32 24 16 24-32 80v-184z" fill="#415e89"/><path d="m160 128v56a16 16 0 0 1 -16 16l9.6 12.8a48 48 0 0 0 38.4 19.2h128a48 48 0 0 0 38.4-19.2l9.6-12.8a16 16 0 0 1 -16-16v-56z" fill="#2f486e"/><path d="m277.171 280h-42.342a32 32 0 0 1 -27.973-16.46l-24.816-44.667a48.008 48.008 0 0 1 -6.04-23.311v-75.562a80 80 0 0 1 80-80 80 80 0 0 1 80 80v75.562a48.008 48.008 0 0 1 -6.04 23.311l-24.816 44.667a32 32 0 0 1 -27.973 16.46z" fill="#fdc8a2"/><path d="m214 168a14 14 0 1 1 14-14 14.015 14.015 0 0 1 -14 14z" fill="#91563a"/><path d="m298 168a14 14 0 1 1 14-14 14.015 14.015 0 0 1 -14 14z" fill="#91563a"/><path d="m172 184h4v-56h-4a28 28 0 0 0 -28 28 28 28 0 0 0 28 28z" fill="#fcb079"/><path d="m340 128h-4v56h4a28 28 0 0 0 28-28 28 28 0 0 0 -28-28z" fill="#fcb079"/><path d="m352 88v40h-16l-18.63-43.48-5.37-12.52v-24a40 40 0 0 1 39.99 39.04c.01.32.01.64.01.96z" fill="#2f486e"/><path d="m200 48v24l-5.44 12.69-18.56 43.31h-16v-40c0-.48.01-.96.03-1.43a40 40 0 0 1 39.97-38.57z" fill="#2f486e"/><path d="m308 84.5c-7.87 10.5-32.78 12.97-32.78 12.97a21.609 21.609 0 0 0 15.86-16.33 21.328 21.328 0 0 0 .46-5.83c0-.13-.01-.25-.02-.38l-7.49 1.07-7.56 1.08-20.47 2.92-7-1-9-1.28-7-1-10.28-1.47-15.86-2.27-6.86-.98v-24a35.1 35.1 0 0 1 33.3-24h45.4q.705 0 1.41.03a35.106 35.106 0 0 1 31.89 23.97s6 23.17-4 36.5z" fill="#34507b"/><path d="m291.56 75.31h-.02c0-.13-.01-.25-.02-.38.01.12.03.25.04.38z" fill="#283f61"/><path d="m408 408h16v88h-16z"/><path d="m381.726 319.186-49.527-14.3-20.2-20.2v-17.038c.043-.076.091-.146.133-.222l15.544-27.977a55.865 55.865 0 0 0 37.124-21.849l9.6-12.8a8 8 0 0 0 -6.4-12.8 7.959 7.959 0 0 1 -7.8-6.221 35.969 35.969 0 0 0 -.2-59.7v-38.079a48.062 48.062 0 0 0 -42.506-47.676 43.037 43.037 0 0 0 -38.794-24.324h-45.4c-15.969 0-30.7 9.4-38.065 22.654-5.566 10.013-3.379 28.2-3.35 28.886l-23.2 13.918a32.014 32.014 0 0 1 18.516-22.8l-6.401-14.658a48.02 48.02 0 0 0 -28.8 44v38.083a35.969 35.969 0 0 0 -.206 59.695 8.01 8.01 0 0 1 -7.794 6.222 8 8 0 0 0 -6.4 12.8l9.6 12.8a55.864 55.864 0 0 0 37.119 21.846l15.543 27.974c.043.077.092.148.135.224v17.04l-20.2 20.2-49.526 14.3a55.919 55.919 0 0 0 -42.271 54.296v122.52h16v-122.52a40.064 40.064 0 0 1 2.092-12.787l31.4 43.957 13.02-9.3-35.4-49.553a39.92 39.92 0 0 1 19.188-11.126c.094-.023.187-.048.28-.075l28.686-8.282-9.666 12.886a8 8 0 0 0 1.6 11.2l25.946 19.459-11.8 17.7a8 8 0 0 0 -.772 7.409l31.426 78.573v22.459h16v-40h16v-16h-16v-48h16v-16h-16v-12l18.88-14.16 13.12 59.038v87.122h16v-87.122l13.12-59.038 18.88 14.16v132h16v-22.459l31.428-78.57a8 8 0 0 0 -.772-7.409l-11.8-17.7 25.944-19.462a8 8 0 0 0 1.6-11.2l-9.665-12.886 28.686 8.282c.093.027.186.052.28.075a39.92 39.92 0 0 1 19.185 11.129l-35.4 49.553 13.02 9.3 31.4-43.957a40.064 40.064 0 0 1 2.094 12.784v18.52h16v-18.52a55.916 55.916 0 0 0 -42.274-54.294zm-117.536 15.079-8.19 36.857-8.167-36.752-.023-.105a14.5 14.5 0 0 0 -1.154-2.7l-30.656-45.987v-2.313a39.943 39.943 0 0 0 18.83 4.735h42.34a39.94 39.94 0 0 0 18.83-4.735v2.313l-30.656 45.984a14.5 14.5 0 0 0 -1.154 2.703zm79.81-158.665v-39.2a20 20 0 0 1 0 39.2zm7.033 25.388a24.159 24.159 0 0 0 3.872 3.14l-2.905 3.872a40.03 40.03 0 0 1 -13.321 11.374 56.16 56.16 0 0 0 5.321-23.814v-3.788q.621-.067 1.235-.157a24.01 24.01 0 0 0 5.798 9.371zm-9.743-80.953-12.19-28.443 14.9 8.938v19.7c-.894-.102-1.8-.165-2.71-.197zm2.037-38.566-21.716-13.03a67.008 67.008 0 0 0 -.026-10.969 32.113 32.113 0 0 1 21.742 23.997zm-64.627-49.469a27.065 27.065 0 0 1 25.62 18.269c1.315 5.323 3.45 21.2-2.722 29.431a11.005 11.005 0 0 1 -2.524 2.326c1.768-9.425.075-20.024-6.4-27.371-5.8-6.572-14.514-9.94-23.185-9.94a29.572 29.572 0 0 0 -29.125 24.97l-8.1-1.157a51.94 51.94 0 0 1 5.114-17.389c6.537-12.7 18.185-19.139 34.622-19.139zm-47.4.086a53.115 53.115 0 0 0 -8.455 12.336 68.154 68.154 0 0 0 -6.423 21.843l-8.422-1.203c-.276-.04-.212-9.656-.16-10.68.2-4.01.979-7.842 3.282-11.2 4.414-6.446 12.509-10.482 20.178-11.096zm-63.3 68.444 14.9-8.941-12.19 28.444c-.913.032-1.817.095-2.711.195zm0 35.872v39.2a20 20 0 0 1 0-39.2zm-8 71.598-2.916-3.888a24.111 24.111 0 0 0 9.675-12.5c.412.061.825.112 1.241.158v3.788a56.163 56.163 0 0 0 5.319 23.811 40.035 40.035 0 0 1 -13.319-11.369zm29.034 6.986a40.108 40.108 0 0 1 -5.034-19.426v-65.918l20.938-48.856 49.931 7.134c1.474.21 18.268-2.25 18.262-2.286l-2.262-15.834-14.652 2.093a13.543 13.543 0 0 1 13.27-11.173c15.7 0 19.459 25.074 3.79 28.994-8.8 2.2-7.269 15.763 1.931 15.763.264 0 23.125-.139 36.7-13.382l16.092 37.547v65.918a40.1 40.1 0 0 1 -5.033 19.424l-24.821 44.673a24 24 0 0 1 -20.976 12.343h-42.34a24 24 0 0 1 -20.977-12.346zm-17.834 127.414 28.8-35.087v60.6a7.99 7.99 0 0 0 -3.2-6.311zm27.456 30.038a7.968 7.968 0 0 0 1.344-4.338v62.358l-15.009-37.523zm17.344-28.438v-29.578l13.146 19.719zm66.854-9.859 13.146-19.719v29.578zm29.146 96.318v-62.359a7.968 7.968 0 0 0 1.344 4.337l13.665 20.5zm3.2-68.859a7.99 7.99 0 0 0 -3.2 6.311v-60.6l28.8 35.089z"/><path d="m228 154a14 14 0 1 0 -14 14 14.015 14.015 0 0 0 14-14z"/><path d="m298 168a14 14 0 1 0 -14-14 14.015 14.015 0 0 0 14 14z"/><path d="m290.53 217.417-5.052-15.181c-.225.075-22.788 7.437-44.743 5.41l-1.47 15.932c3.18.294 6.35.422 9.467.422a146.9 146.9 0 0 0 41.798-6.583z"/><path d="m248 160h16v32h-16z"/><path d="m136 416h16v80h-16z"/><path d="m360 464h-32v16h32v16h16v-80h-16z"/><path d="m168 480h16v16h-16z"/></g></svg>